<?xml version="1.0" standalone="no"?>
<!DOCTYPE svg PUBLIC "-//W3C//DTD SVG 20010904//EN"
 "http://www.w3.org/TR/2001/REC-SVG-20010904/DTD/svg10.dtd">
<svg version="1.0" xmlns="http://www.w3.org/2000/svg"
 width="500.000000pt" height="500.000000pt" viewBox="0 0 500.000000 500.000000"
 preserveAspectRatio="xMidYMid meet">

<g transform="translate(0.000000,500.000000) scale(0.100000,-0.100000)"
fill="#000000" stroke="none">
<path d="M1013 3718 c21 -49 356 -900 472 -1198 42 -107 80 -204 85 -215 5
-11 34 -85 65 -165 31 -80 85 -217 120 -305 35 -88 93 -236 130 -330 121 -308
168 -426 170 -423 2 2 -6 57 -16 123 -10 66 -30 190 -43 275 -13 85 -63 403
-111 705 -48 303 -97 618 -110 700 -13 83 -44 283 -69 445 -26 162 -51 319
-57 348 l-10 52 -316 0 c-248 0 -314 -3 -310 -12z"/>
<path d="M3011 3708 c-67 -181 -683 -1879 -707 -1948 -49 -143 -234 -717 -234
-724 0 -3 115 -5 256 -4 l256 3 38 95 c20 52 94 239 163 415 458 1165 646
1644 769 1954 48 123 88 226 88 227 0 2 -140 4 -310 4 l-310 0 -9 -22z"/>
<path d="M2760 1245 c0 -20 5 -25 25 -25 25 0 25 -1 25 -85 l0 -85 30 0 30 0
0 85 c0 84 0 85 25 85 20 0 25 5 25 25 0 25 -1 25 -80 25 -79 0 -80 0 -80 -25z"/>
<path d="M3470 1241 c0 -5 -8 -17 -17 -26 -13 -14 -14 -21 -5 -36 7 -10 12
-38 12 -63 0 -52 16 -69 62 -64 25 2 34 8 36 25 3 17 -1 20 -17 16 -15 -4 -22
1 -26 20 -10 39 -2 62 23 65 32 5 30 42 -3 42 -16 0 -25 6 -25 15 0 8 -9 15
-20 15 -11 0 -20 -4 -20 -9z"/>
<path d="M2950 1135 l0 -85 30 0 c30 0 30 1 30 55 0 49 2 55 24 61 22 5 42 41
30 53 -3 3 -18 0 -34 -6 -18 -7 -32 -7 -36 -2 -3 5 -14 9 -25 9 -17 0 -19 -8
-19 -85z"/>
<path d="M3114 1214 c-7 -3 -10 -13 -7 -24 4 -15 11 -17 39 -13 46 7 45 -13
-1 -21 -56 -11 -81 -71 -41 -98 17 -12 61 -9 75 5 11 10 14 10 18 0 3 -7 13
-13 24 -13 17 0 19 8 19 69 0 84 -13 101 -73 100 -23 0 -47 -3 -53 -5z m69
-109 c-6 -17 -29 -20 -38 -6 -6 11 25 32 37 25 4 -3 5 -11 1 -19z"/>
<path d="M3302 1197 c-30 -31 -30 -99 -1 -128 15 -15 30 -19 62 -17 35 3 43 7
45 26 3 22 1 23 -27 17 -27 -6 -32 -3 -40 17 -15 41 7 71 45 62 16 -4 23 0 27
15 7 27 1 31 -48 31 -30 0 -47 -6 -63 -23z"/>
<path d="M3605 1195 c-17 -16 -25 -35 -25 -60 0 -77 92 -114 147 -59 22 22 25
32 20 67 -7 50 -36 77 -84 77 -23 0 -42 -8 -58 -25z m80 -60 c0 -33 -3 -40
-20 -40 -15 0 -21 8 -23 28 -5 39 5 59 25 55 14 -2 18 -13 18 -43z"/>
<path d="M3780 1135 l0 -85 30 0 c29 0 30 1 30 48 0 51 12 72 42 72 13 0 18 8
18 25 0 28 -26 34 -49 13 -11 -10 -14 -10 -18 0 -3 6 -16 12 -29 12 -23 0 -24
-2 -24 -85z"/>
</g>
</svg>
